# Blender v2.83.5 OBJ File: 'TERRAIN_SIMPLE.blend'
# www.blender.org
mtllib terrain_simple.mtl
o Cube
v 14.003727 0.037033 -13.933055
v 14.003727 -0.037033 -13.933055
v 14.003727 0.037033 13.933055
v 14.003727 -0.037033 13.933055
v -14.003727 0.037033 -13.933055
v -14.003727 -0.037033 -13.933055
v -14.003727 0.477020 13.933055
v -14.003727 -0.037033 13.933055
v -14.003727 -0.037033 0.000000
v 14.003727 0.594826 0.000000
v -14.003727 0.245410 0.000000
v 14.003727 -0.037033 0.000000
v 0.000000 -0.037033 -13.933055
v 0.000000 0.037033 13.933055
v 0.000000 -0.037033 13.933055
v 0.000000 0.037033 -13.933055
v 0.000000 -0.037033 0.000000
v 0.000000 0.037033 0.000000
v -14.003727 -0.037033 6.966527
v 14.003727 0.037033 6.966527
v -14.003727 0.037033 6.966527
v 14.003727 -0.037033 6.966527
v 0.000000 -0.037033 6.966527
v 0.000000 0.037033 6.966527
v -14.003727 0.037033 -6.966527
v 14.003727 -0.037033 -6.966527
v -14.003727 -0.037033 -6.966527
v 14.003727 0.037033 -6.966527
v 0.000000 0.037033 -6.966527
v 0.000000 -0.037033 -6.966527
v 7.001863 -0.037033 13.933055
v 7.001863 0.408347 -13.933055
v 7.001863 0.037033 0.000000
v 7.001863 -0.037033 -13.933055
v 7.001863 0.037033 13.933055
v 7.001863 -0.037033 0.000000
v 7.001863 0.407539 6.966527
v 7.001863 -0.037033 6.966527
v 7.001863 0.037033 -6.966527
v 7.001863 -0.037033 -6.966527
v -7.001863 -0.037033 -13.933055
v -7.001863 0.037033 13.933055
v -7.001863 -0.037033 0.000000
v -7.001863 -0.037033 13.933055
v -7.001863 0.526144 -13.933055
v -7.001863 0.037033 0.000000
v -7.001863 -0.037033 6.966527
v -7.001863 0.037033 6.966527
v -7.001863 -0.037033 -6.966527
v -7.001863 0.037033 -6.966527
v -14.003727 -0.037033 10.449791
v 14.003727 0.037033 10.449791
v 0.000000 -0.037033 10.449791
v 0.000000 0.037033 10.449791
v -14.003727 0.477020 10.449791
v 14.003727 -0.037033 10.449791
v 7.001863 0.407539 10.449791
v 7.001863 -0.037033 10.449791
v -7.001863 -0.037033 10.449791
v -7.001863 0.037033 10.449791
v 10.502795 -0.037033 13.933055
v 10.502795 0.408347 -13.933055
v 10.502795 0.594826 0.000000
v 10.502795 0.037033 6.966527
v 10.502795 0.037033 -6.966527
v 10.502795 -0.037033 -13.933055
v 10.502795 0.037033 13.933055
v 10.502795 -0.037033 0.000000
v 10.502795 -0.037033 6.966527
v 10.502795 -0.037033 -6.966527
v 10.502795 0.037033 10.449791
v 10.502795 -0.037033 10.449791
v 3.500932 -0.037033 -13.933055
v 3.500932 0.037033 13.933055
v 3.500932 -0.037033 0.000000
v 3.500932 -0.037033 6.966527
v 3.500932 -0.037033 -6.966527
v 3.500932 -0.037033 13.933055
v 3.500932 0.037033 -13.933055
v 3.500932 0.037033 0.000000
v 3.500932 0.407539 6.966527
v 3.500932 0.037033 -6.966527
v 3.500932 -0.037033 10.449791
v 3.500932 0.407539 10.449791
v -3.500932 -0.037033 13.933055
v -3.500932 0.037033 -13.933055
v -3.500932 0.037033 0.000000
v -3.500932 0.037033 6.966527
v -3.500932 0.037033 -6.966527
v -3.500932 -0.037033 -13.933055
v -3.500932 0.037033 13.933055
v -3.500932 -0.037033 0.000000
v -3.500932 -0.037033 6.966527
v -3.500932 -0.037033 -6.966527
v -3.500932 0.037033 10.449791
v -3.500932 -0.037033 10.449791
v -10.502795 -0.037033 -13.933055
v -10.502795 0.477020 13.933055
v -10.502795 -0.037033 0.000000
v -10.502795 -0.037033 6.966527
v -10.502795 -0.037033 -6.966527
v -10.502795 -0.037033 13.933055
v -10.502795 0.526144 -13.933055
v -10.502795 0.245410 0.000000
v -10.502795 0.037033 6.966527
v -10.502795 0.037033 -6.966527
v -10.502795 -0.037033 10.449791
v -10.502795 0.477020 10.449791
v -14.003727 0.037033 3.483264
v 14.003727 -0.037033 3.483264
v -14.003727 -0.037033 3.483264
v 14.003727 0.594826 3.483264
v 0.000000 -0.037033 3.483264
v 0.000000 0.037033 3.483264
v 7.001863 -0.037033 3.483264
v 7.001863 0.037033 3.483264
v -7.001863 0.037033 3.483264
v -7.001863 -0.037033 3.483264
v 10.502795 0.594826 3.483264
v 10.502795 -0.037033 3.483264
v 3.500932 -0.037033 3.483264
v 3.500932 0.037033 3.483264
v -3.500932 0.037033 3.483264
v -3.500932 -0.037033 3.483264
v -10.502795 -0.037033 3.483264
v -10.502795 0.037033 3.483264
v -14.003727 -0.037033 -3.483264
v 14.003727 0.594826 -3.483264
v 0.000000 0.037033 -3.483264
v 0.000000 -0.037033 -3.483264
v -14.003727 0.245410 -3.483264
v 14.003727 -0.037033 -3.483264
v 7.001863 0.037033 -3.483264
v 7.001863 -0.037033 -3.483264
v -7.001863 -0.037033 -3.483264
v -7.001863 0.037033 -3.483264
v 10.502795 0.594826 -3.483264
v 10.502795 -0.037033 -3.483264
v 3.500932 -0.037033 -3.483264
v 3.500932 0.037033 -3.483264
v -3.500932 0.037033 -3.483264
v -3.500932 -0.037033 -3.483264
v -10.502795 -0.037033 -3.483264
v -10.502795 0.245410 -3.483264
v -14.003727 0.037033 -10.449791
v 14.003727 -0.037033 -10.449791
v -14.003727 -0.037033 -10.449791
v 14.003727 0.037033 -10.449791
v 0.000000 0.037033 -10.449791
v 0.000000 -0.037033 -10.449791
v 7.001863 -0.037033 -10.449791
v 7.001863 0.408347 -10.449791
v -7.001863 0.526144 -10.449791
v -7.001863 -0.037033 -10.449791
v 10.502795 0.408347 -10.449791
v 10.502795 -0.037033 -10.449791
v 3.500932 -0.037033 -10.449791
v 3.500932 0.037033 -10.449791
v -3.500932 0.037033 -10.449791
v -3.500932 -0.037033 -10.449791
v -10.502795 -0.037033 -10.449791
v -10.502795 0.526144 -10.449791
vt 0.843750 0.718750
vt 0.875000 0.718750
vt 0.875000 0.750000
vt 0.843750 0.750000
vt 0.375000 0.968750
vt 0.625000 0.968750
vt 0.625000 1.000000
vt 0.375000 1.000000
vt 0.375000 0.218750
vt 0.625000 0.218750
vt 0.625000 0.250000
vt 0.375000 0.250000
vt 0.343750 0.718750
vt 0.375000 0.718750
vt 0.375000 0.750000
vt 0.343750 0.750000
vt 0.625000 0.718750
vt 0.625000 0.750000
vt 0.375000 0.468750
vt 0.625000 0.468750
vt 0.625000 0.500000
vt 0.375000 0.500000
vt 0.375000 0.593750
vt 0.625000 0.593750
vt 0.625000 0.625000
vt 0.375000 0.625000
vt 0.343750 0.593750
vt 0.343750 0.625000
vt 0.375000 0.093750
vt 0.625000 0.093750
vt 0.625000 0.125000
vt 0.375000 0.125000
vt 0.843750 0.593750
vt 0.875000 0.593750
vt 0.875000 0.625000
vt 0.843750 0.625000
vt 0.718750 0.593750
vt 0.750000 0.593750
vt 0.750000 0.625000
vt 0.718750 0.625000
vt 0.218750 0.593750
vt 0.250000 0.593750
vt 0.250000 0.625000
vt 0.218750 0.625000
vt 0.375000 0.343750
vt 0.625000 0.343750
vt 0.625000 0.375000
vt 0.375000 0.375000
vt 0.218750 0.718750
vt 0.250000 0.718750
vt 0.250000 0.750000
vt 0.218750 0.750000
vt 0.375000 0.843750
vt 0.625000 0.843750
vt 0.625000 0.875000
vt 0.375000 0.875000
vt 0.718750 0.718750
vt 0.750000 0.718750
vt 0.750000 0.750000
vt 0.718750 0.750000
vt 0.718750 0.656250
vt 0.750000 0.656250
vt 0.750000 0.687500
vt 0.718750 0.687500
vt 0.218750 0.656250
vt 0.250000 0.656250
vt 0.250000 0.687500
vt 0.218750 0.687500
vt 0.375000 0.031250
vt 0.625000 0.031250
vt 0.625000 0.062500
vt 0.375000 0.062500
vt 0.375000 0.656250
vt 0.625000 0.656250
vt 0.625000 0.687500
vt 0.375000 0.687500
vt 0.343750 0.656250
vt 0.343750 0.687500
vt 0.843750 0.656250
vt 0.875000 0.656250
vt 0.875000 0.687500
vt 0.843750 0.687500
vt 0.218750 0.531250
vt 0.250000 0.531250
vt 0.250000 0.562500
vt 0.218750 0.562500
vt 0.718750 0.531250
vt 0.750000 0.531250
vt 0.750000 0.562500
vt 0.718750 0.562500
vt 0.843750 0.531250
vt 0.875000 0.531250
vt 0.875000 0.562500
vt 0.843750 0.562500
vt 0.343750 0.531250
vt 0.375000 0.531250
vt 0.375000 0.562500
vt 0.343750 0.562500
vt 0.625000 0.531250
vt 0.625000 0.562500
vt 0.375000 0.156250
vt 0.625000 0.156250
vt 0.625000 0.187500
vt 0.375000 0.187500
vt 0.281250 0.531250
vt 0.312500 0.531250
vt 0.312500 0.562500
vt 0.281250 0.562500
vt 0.656250 0.531250
vt 0.687500 0.531250
vt 0.687500 0.562500
vt 0.656250 0.562500
vt 0.281250 0.656250
vt 0.312500 0.656250
vt 0.312500 0.687500
vt 0.281250 0.687500
vt 0.656250 0.656250
vt 0.687500 0.656250
vt 0.687500 0.687500
vt 0.656250 0.687500
vt 0.656250 0.718750
vt 0.687500 0.718750
vt 0.687500 0.750000
vt 0.656250 0.750000
vt 0.375000 0.781250
vt 0.625000 0.781250
vt 0.625000 0.812500
vt 0.375000 0.812500
vt 0.656250 0.593750
vt 0.687500 0.593750
vt 0.687500 0.625000
vt 0.656250 0.625000
vt 0.281250 0.593750
vt 0.312500 0.593750
vt 0.312500 0.625000
vt 0.281250 0.625000
vt 0.375000 0.406250
vt 0.625000 0.406250
vt 0.625000 0.437500
vt 0.375000 0.437500
vt 0.281250 0.718750
vt 0.312500 0.718750
vt 0.312500 0.750000
vt 0.281250 0.750000
vt 0.781250 0.531250
vt 0.812500 0.531250
vt 0.812500 0.562500
vt 0.781250 0.562500
vt 0.156250 0.531250
vt 0.187500 0.531250
vt 0.187500 0.562500
vt 0.156250 0.562500
vt 0.781250 0.656250
vt 0.812500 0.656250
vt 0.812500 0.687500
vt 0.781250 0.687500
vt 0.156250 0.656250
vt 0.187500 0.656250
vt 0.187500 0.687500
vt 0.156250 0.687500
vt 0.156250 0.718750
vt 0.187500 0.718750
vt 0.187500 0.750000
vt 0.156250 0.750000
vt 0.375000 0.281250
vt 0.625000 0.281250
vt 0.625000 0.312500
vt 0.375000 0.312500
vt 0.156250 0.593750
vt 0.187500 0.593750
vt 0.187500 0.625000
vt 0.156250 0.625000
vt 0.781250 0.593750
vt 0.812500 0.593750
vt 0.812500 0.625000
vt 0.781250 0.625000
vt 0.375000 0.906250
vt 0.625000 0.906250
vt 0.625000 0.937500
vt 0.375000 0.937500
vt 0.781250 0.718750
vt 0.812500 0.718750
vt 0.812500 0.750000
vt 0.781250 0.750000
vt 0.375000 0.000000
vt 0.625000 0.000000
vt 0.125000 0.687500
vt 0.125000 0.718750
vt 0.125000 0.593750
vt 0.125000 0.625000
vt 0.125000 0.750000
vt 0.125000 0.656250
vt 0.125000 0.531250
vt 0.125000 0.562500
vt 0.812500 0.500000
vt 0.843750 0.500000
vt 0.125000 0.500000
vt 0.156250 0.500000
vt 0.187500 0.500000
vt 0.218750 0.500000
vt 0.750000 0.500000
vt 0.781250 0.500000
vt 0.687500 0.500000
vt 0.718750 0.500000
vt 0.250000 0.500000
vt 0.281250 0.500000
vt 0.312500 0.500000
vt 0.343750 0.500000
vt 0.656250 0.500000
vt 0.875000 0.500000
vn 0.0000 1.0000 0.0000
vn 0.0000 0.0000 1.0000
vn -1.0000 0.0000 0.0000
vn 0.0000 -1.0000 0.0000
vn 1.0000 0.0000 0.0000
vn 0.0000 0.0000 -1.0000
vn -0.0528 0.9972 0.0530
vn -0.0528 0.9972 -0.0530
vn -0.0695 0.9951 0.0699
vn 0.0000 0.9944 0.1060
vn -0.0267 0.9993 0.0269
vn 0.0528 0.9972 0.0530
vn -0.1573 0.9875 0.0000
vn 0.0695 0.9951 0.0699
vn 0.1052 0.9944 0.0000
vn -0.1052 0.9944 0.0000
vn 0.0000 0.9921 -0.1253
vn 0.0000 0.9874 0.1581
vn 0.0529 0.9972 0.0531
vn -0.0529 0.9972 0.0531
vn 0.0000 0.9944 -0.1058
vn 0.0000 0.9944 0.1058
vn 0.0626 0.9961 -0.0629
vn 0.0000 0.9903 0.1391
vn 0.0594 0.9982 0.0000
vn 0.1247 0.9922 0.0000
vn 0.0297 0.9991 0.0299
vn 0.0000 0.9982 0.0597
vn 0.0297 0.9991 -0.0299
vn 0.0000 0.9874 -0.1581
vn -0.0792 0.9937 -0.0796
vn 0.0000 0.9982 -0.0597
vn -0.1055 0.9944 0.0000
vn 0.1055 0.9944 0.0000
vn 0.1384 0.9904 0.0000
vn -0.1384 0.9904 0.0000
usemtl Material
s off
f 108/1/1 55/2/1 7/3/1 98/4/1
f 102/5/2 98/6/2 7/7/2 8/8/2
f 147/9/3 145/10/3 5/11/3 6/12/3
f 72/13/4 56/14/4 4/15/4 61/16/4
f 56/14/5 52/17/5 3/18/5 4/15/5
f 66/19/6 62/20/6 1/21/6 2/22/6
f 132/23/5 128/24/5 10/25/5 12/26/5
f 138/27/4 132/23/4 12/26/4 68/28/4
f 111/29/3 109/30/3 11/31/3 9/32/3
f 144/33/1 131/34/1 11/35/1 104/36/1
f 140/37/1 129/38/1 18/39/1 80/40/1
f 142/41/4 130/42/4 17/43/4 92/44/4
f 90/45/6 86/46/6 16/47/6 13/48/6
f 96/49/4 53/50/4 15/51/4 85/52/4
f 78/53/2 74/54/2 14/55/2 15/56/2
f 84/57/7 54/58/7 14/59/7 74/60/7
f 122/61/8 114/62/8 24/63/8 81/64/8
f 124/65/4 113/66/4 23/67/4 93/68/4
f 51/69/3 55/70/3 21/71/3 19/72/3
f 110/73/5 112/74/5 20/75/5 22/76/5
f 120/77/4 110/73/4 22/76/4 69/78/4
f 126/79/1 109/80/1 21/81/1 105/82/1
f 160/83/4 150/84/4 30/85/4 94/86/4
f 158/87/1 149/88/1 29/89/1 82/90/1
f 162/91/9 145/92/9 25/93/9 106/94/9
f 156/95/4 146/96/4 26/97/4 70/98/4
f 146/96/5 148/99/5 28/100/5 26/97/5
f 127/101/3 131/102/3 25/103/3 27/104/3
f 157/105/4 151/106/4 40/107/4 77/108/4
f 155/109/10 152/110/10 39/111/10 65/112/10
f 121/113/4 115/114/4 38/115/4 76/116/4
f 119/117/11 116/118/11 37/119/11 64/120/11
f 71/121/12 57/122/12 35/123/12 67/124/12
f 61/125/2 67/126/2 35/127/2 31/128/2
f 137/129/13 133/130/13 33/131/13 63/132/13
f 139/133/4 134/134/4 36/135/4 75/136/4
f 73/137/6 79/138/6 32/139/6 34/140/6
f 83/141/4 58/142/4 31/143/4 78/144/4
f 159/145/14 153/146/14 50/147/14 89/148/14
f 161/149/4 154/150/4 49/151/4 101/152/4
f 123/153/1 117/154/1 48/155/1 88/156/1
f 125/157/4 118/158/4 47/159/4 100/160/4
f 107/161/4 59/162/4 44/163/4 102/164/4
f 97/165/6 103/166/6 45/167/6 41/168/6
f 143/169/4 135/170/4 43/171/4 99/172/4
f 141/173/1 136/174/1 46/175/1 87/176/1
f 85/177/2 91/178/2 42/179/2 44/180/2
f 95/181/1 60/182/1 42/183/1 91/184/1
f 88/156/1 48/155/1 60/182/1 95/181/1
f 100/160/4 47/159/4 59/162/4 107/161/4
f 76/116/4 38/115/4 58/142/4 83/141/4
f 64/120/15 37/119/15 57/122/15 71/121/15
f 8/185/3 7/186/3 55/70/3 51/69/3
f 81/64/16 24/63/16 54/58/16 84/57/16
f 93/68/4 23/67/4 53/50/4 96/49/4
f 22/76/5 20/75/5 52/17/5 56/14/5
f 69/78/4 22/76/4 56/14/4 72/13/4
f 105/82/17 21/81/17 55/2/17 108/1/17
f 38/115/4 69/78/4 72/13/4 58/142/4
f 20/75/1 64/120/1 71/121/1 52/17/1
f 128/24/1 137/129/1 63/132/1 10/25/1
f 4/15/2 3/18/2 67/126/2 61/125/2
f 52/17/1 71/121/1 67/124/1 3/18/1
f 112/74/18 119/117/18 64/120/18 20/75/18
f 148/99/19 155/109/19 65/112/19 28/100/19
f 151/106/4 156/95/4 70/98/4 40/107/4
f 115/114/4 120/77/4 69/78/4 38/115/4
f 134/134/4 138/27/4 68/28/4 36/135/4
f 34/140/6 32/139/6 62/20/6 66/19/6
f 58/142/4 72/13/4 61/16/4 31/143/4
f 37/119/1 81/64/1 84/57/1 57/122/1
f 23/67/4 76/116/4 83/141/4 53/50/4
f 53/50/4 83/141/4 78/144/4 15/51/4
f 13/48/6 16/47/6 79/138/6 73/137/6
f 130/42/4 139/133/4 75/136/4 17/43/4
f 113/66/4 121/113/4 76/116/4 23/67/4
f 150/84/4 157/105/4 77/108/4 30/85/4
f 152/110/20 158/87/20 82/90/20 39/111/20
f 116/118/21 122/61/21 81/64/21 37/119/21
f 57/122/22 84/57/22 74/60/22 35/123/22
f 31/128/2 35/127/2 74/54/2 78/53/2
f 133/130/1 140/37/1 80/40/1 33/131/1
f 47/159/4 93/68/4 96/49/4 59/162/4
f 24/63/1 88/156/1 95/181/1 54/58/1
f 54/58/1 95/181/1 91/184/1 14/59/1
f 15/56/2 14/55/2 91/178/2 85/177/2
f 129/38/1 141/173/1 87/176/1 18/39/1
f 114/62/1 123/153/1 88/156/1 24/63/1
f 149/88/1 159/145/1 89/148/1 29/89/1
f 154/150/4 160/83/4 94/86/4 49/151/4
f 118/158/4 124/65/4 93/68/4 47/159/4
f 59/162/4 96/49/4 85/52/4 44/163/4
f 41/168/6 45/167/6 86/46/6 90/45/6
f 135/170/4 142/41/4 92/44/4 43/171/4
f 48/155/23 105/82/23 108/1/23 60/182/23
f 19/187/4 100/160/4 107/161/4 51/188/4
f 127/189/4 143/169/4 99/172/4 9/190/4
f 6/12/6 5/11/6 103/166/6 97/165/6
f 51/188/4 107/161/4 102/164/4 8/191/4
f 111/192/4 125/157/4 100/160/4 19/187/4
f 147/193/4 161/149/4 101/152/4 27/194/4
f 153/146/24 162/91/24 106/94/24 50/147/24
f 117/154/1 126/79/1 105/82/1 48/155/1
f 136/174/25 144/33/25 104/36/25 46/175/25
f 44/180/2 42/179/2 98/6/2 102/5/2
f 60/182/26 108/1/26 98/4/26 42/183/26
f 46/175/27 104/36/27 126/79/27 117/154/27
f 9/190/4 99/172/4 125/157/4 111/192/4
f 43/171/4 92/44/4 124/65/4 118/158/4
f 18/39/1 87/176/1 123/153/1 114/62/1
f 33/131/1 80/40/1 122/61/1 116/118/1
f 17/43/4 75/136/4 121/113/4 113/66/4
f 36/135/4 68/28/4 120/77/4 115/114/4
f 10/25/1 63/132/1 119/117/1 112/74/1
f 99/172/4 43/171/4 118/158/4 125/157/4
f 87/176/1 46/175/1 117/154/1 123/153/1
f 63/132/13 33/131/13 116/118/13 119/117/13
f 75/136/4 36/135/4 115/114/4 121/113/4
f 104/36/28 11/35/28 109/80/28 126/79/28
f 68/28/4 12/26/4 110/73/4 120/77/4
f 12/26/5 10/25/5 112/74/5 110/73/5
f 92/44/4 17/43/4 113/66/4 124/65/4
f 80/40/1 18/39/1 114/62/1 122/61/1
f 19/72/3 21/71/3 109/30/3 111/29/3
f 50/147/29 106/94/29 144/33/29 136/174/29
f 27/194/4 101/152/4 143/169/4 127/189/4
f 49/151/4 94/86/4 142/41/4 135/170/4
f 29/89/1 89/148/1 141/173/1 129/38/1
f 39/111/1 82/90/1 140/37/1 133/130/1
f 30/85/4 77/108/4 139/133/4 130/42/4
f 40/107/4 70/98/4 138/27/4 134/134/4
f 28/100/30 65/112/30 137/129/30 128/24/30
f 89/148/1 50/147/1 136/174/1 141/173/1
f 101/152/4 49/151/4 135/170/4 143/169/4
f 77/108/4 40/107/4 134/134/4 139/133/4
f 65/112/31 39/111/31 133/130/31 137/129/31
f 9/32/3 11/31/3 131/102/3 127/101/3
f 94/86/4 30/85/4 130/42/4 142/41/4
f 82/90/1 29/89/1 129/38/1 140/37/1
f 106/94/32 25/93/32 131/34/32 144/33/32
f 70/98/4 26/97/4 132/23/4 138/27/4
f 26/97/5 28/100/5 128/24/5 132/23/5
f 45/195/1 103/196/1 162/91/1 153/146/1
f 6/197/4 97/198/4 161/149/4 147/193/4
f 41/199/4 90/200/4 160/83/4 154/150/4
f 16/201/1 86/202/1 159/145/1 149/88/1
f 32/203/33 79/204/33 158/87/33 152/110/33
f 13/205/4 73/206/4 157/105/4 150/84/4
f 34/207/4 66/208/4 156/95/4 151/106/4
f 1/21/34 62/209/34 155/109/34 148/99/34
f 97/198/4 41/199/4 154/150/4 161/149/4
f 86/202/35 45/195/35 153/146/35 159/145/35
f 62/209/1 32/203/1 152/110/1 155/109/1
f 73/206/4 34/207/4 151/106/4 157/105/4
f 2/22/5 1/21/5 148/99/5 146/96/5
f 66/208/4 2/22/4 146/96/4 156/95/4
f 103/196/36 5/210/36 145/92/36 162/91/36
f 79/204/1 16/201/1 149/88/1 158/87/1
f 90/200/4 13/205/4 150/84/4 160/83/4
f 27/104/3 25/103/3 145/10/3 147/9/3
